<svg width="72" height="38" viewBox="0 0 72 38" fill="none" xmlns="http://www.w3.org/2000/svg">
<path d="M71.1149 24.2736C69.8066 19.9066 67.2776 15.6267 63.7998 11.8986C60.5276 8.391 56.5803 5.51723 52.3836 3.58829C48.1934 1.66277 43.1224 0.430909 38.4756 0.102869C36.8792 -0.0116027 36.0001 0.000357301 36.0001 0.000357301C36.0001 0.000357301 35.1209 -0.0116027 33.5245 0.102869C28.8777 0.430909 23.8051 1.66277 19.6165 3.58829C15.4182 5.51723 11.4709 8.391 8.19868 11.8986C4.7225 15.6267 2.19348 19.9066 0.885259 24.2736C-0.283723 28.1776 -1.03336 32.9701 3.5859 35.3876C8.30716 37.8616 16.0156 36.7801 20.4487 34.3591C20.7515 34.1951 21.0818 33.9815 21.4299 33.756C22.6296 32.9803 23.9897 32.1004 25.1084 32.5583C25.6071 32.7633 25.9374 33.2212 25.9488 33.7235C25.952 33.8739 25.9261 34.0174 25.8727 34.1472C25.8808 33.8602 25.8047 33.568 25.6525 33.3169C25.4598 32.9974 25.17 32.7855 24.8348 32.7189C23.9411 32.5429 23.0975 32.9496 22.6312 33.7799C22.1245 34.6854 22.2054 35.8353 22.832 36.6417C23.6917 37.7471 25.102 37.8138 26.3454 37.8719C26.734 37.8907 27.0999 37.9077 27.4448 37.9539L35.8139 38H36.1846L44.5553 37.9539C44.8986 37.9077 45.2661 37.8907 45.6547 37.8719C46.8981 37.8138 48.3084 37.7471 49.1665 36.6417C49.7947 35.8353 49.8756 34.6854 49.3673 33.7799C48.9026 32.9496 48.0574 32.5429 47.1637 32.7189C46.8301 32.7855 46.5403 32.9974 46.346 33.3169C46.1938 33.568 46.1177 33.8602 46.1258 34.1472C46.0724 34.0174 46.0465 33.8739 46.0497 33.7235C46.0627 33.2212 46.393 32.7633 46.8917 32.5583C48.0088 32.1004 49.3689 32.9803 50.5702 33.756C50.9183 33.9815 51.247 34.1951 51.5498 34.3591C55.9845 36.7801 63.6913 37.8616 68.4126 35.3876C73.0335 32.9701 72.2838 28.1776 71.1149 24.2736ZM29.888 37.0518C29.8848 37.062 29.8783 37.0808 29.8783 37.0808H27.7006C27.7006 37.0808 27.7152 37.0706 27.7217 37.0654C28.5134 36.4316 29.0299 35.5619 29.1983 34.5539C29.4152 33.2691 29.0202 31.9278 28.1167 30.8754C25.6039 27.9521 22.513 29.4129 19.7849 30.7028C19.3445 30.9113 18.9268 31.1077 18.5139 31.2871C16.0351 32.3618 11.1859 33.973 6.55045 32.6881C5.7911 32.478 3.95505 31.8407 3.30094 30.4636C3.00141 29.8332 2.99817 29.1241 3.29284 28.3553C4.15582 26.1051 6.59579 27.0278 8.5565 27.7693C8.95965 27.923 9.34014 28.0665 9.67529 28.1691C11.6231 28.7653 13.5789 29.0609 15.4992 29.0524C15.7728 29.0507 16.0464 29.0438 16.32 29.0302C17.1134 28.9909 17.9116 28.8678 18.6823 28.75C19.474 28.6287 20.2917 28.5022 21.098 28.4681C21.357 28.4578 21.6501 28.4698 21.9334 28.4817C22.3349 28.4988 22.7478 28.5159 23.1089 28.4715C23.2837 28.451 23.41 28.3433 23.4327 28.1981C23.4489 28.0956 23.4068 27.9555 23.2416 27.8752C23.1477 27.8308 22.8822 27.8017 22.879 27.8017C22.1568 27.7334 21.4007 27.7453 20.6689 27.7573C20.4795 27.7607 20.2884 27.7641 20.0957 27.7658C19.9516 27.7675 19.8076 27.7675 19.6635 27.7675C19.4222 27.7658 19.181 27.759 18.9397 27.747C18.747 27.7385 18.556 27.7265 18.3649 27.7078C14.7414 27.3455 9.46319 25.7463 6.81922 23.4979C6.22663 22.9922 5.85262 22.2968 5.79434 21.5895C5.74414 20.9676 5.93682 20.3747 6.3513 19.8758C7.91858 17.9964 10.0396 19.6469 11.7445 20.9727C12.0521 21.2119 12.3436 21.4391 12.6123 21.6288C15.3858 23.5868 18.033 25.0424 20.4795 25.9582C21.2097 26.2316 21.982 26.4537 22.798 26.6912C24.8591 27.2875 26.9914 27.9042 28.4551 29.3667C29.4767 30.3885 30.2248 31.9928 30.3171 33.3579C30.3818 34.3266 30.3559 35.7293 29.888 37.0518ZM31.6917 36.9749C31.6884 37.0244 31.6771 37.0808 31.6771 37.0808H30.6117C30.6117 37.0808 30.6198 37.0586 30.6231 37.0466C30.8093 36.5067 30.9404 35.9139 30.9938 35.3723C31.3419 31.8595 30.0823 29.2847 27.2521 27.7214C26.7534 27.4463 26.2289 27.2191 25.7221 27.0004C25.3999 26.862 25.068 26.7185 24.7474 26.5647C21.03 24.781 17.3595 22.2831 14.131 19.3462C13.3846 18.6662 11.4012 16.8619 10.9252 15.83C10.5156 14.9415 10.6386 13.9301 11.2458 13.1903C11.874 12.4249 12.8374 12.143 13.7603 12.4539C14.573 12.729 15.2385 13.5918 15.8262 14.3538C15.9752 14.5469 16.1193 14.7348 16.2601 14.9057C18.8021 17.9827 21.5545 21.217 24.7862 23.9421C25.238 24.3231 25.7027 24.687 26.1511 25.0373C27.291 25.9275 28.3677 26.7681 29.297 27.9128C31.601 30.749 31.9216 33.4826 31.6917 36.9749ZM33.0404 36.8689L33.0258 37.0808C32.9319 37.0825 32.4154 37.0808 32.4154 37.0808C32.4154 37.0808 32.5352 33.4895 32.1288 31.8595C31.4456 29.1156 29.6241 27.296 27.8625 25.5362C27.3185 24.9929 26.7551 24.4291 26.2289 23.8447C22.9486 20.1953 19.589 15.3533 17.6687 11.5108C17.2559 10.6821 17.1441 9.84667 17.3579 9.15471C17.5327 8.58235 17.9181 8.13813 18.5009 7.83401C20.3095 6.89261 21.4898 8.50547 22.0306 9.5511C22.5228 10.501 22.9777 11.5245 23.4165 12.5154C23.7419 13.2467 24.0771 14.0053 24.4252 14.7263C25.646 17.2532 26.7891 19.4299 27.9176 21.3844C28.3628 22.155 28.8372 22.9153 29.297 23.65C30.9096 26.2247 32.4316 28.6577 32.9173 31.7553C33.1828 33.4467 33.1116 35.186 33.0404 36.8689ZM34.5477 37.0808H33.7511C33.7511 37.0808 33.7835 34.0943 33.7868 33.85C33.8175 30.4004 32.791 28.6184 31.588 26.1496C31.329 25.6182 31.0602 25.0681 30.7769 24.4547C28.6947 19.9544 26.8878 14.8612 25.6897 10.1115L25.6233 9.8518C25.1133 7.85281 24.5369 5.58557 26.6612 4.63904C27.3315 4.34176 27.9386 4.33663 28.4648 4.62708C29.2112 5.03713 29.8168 6.08276 30.0871 7.42567C30.4336 9.14105 30.7299 10.9008 31.0165 12.6025C31.3338 14.4854 31.6625 16.4331 32.0592 18.333C32.3069 19.5204 32.6081 20.7164 32.8979 21.8714C33.1812 22.999 33.4759 24.166 33.7188 25.3192C34.4117 28.615 34.5607 32.3584 34.5445 35.9105C34.5445 36.0574 34.5494 36.2214 34.5542 36.3906C34.5639 36.7032 34.5477 37.0808 34.5477 37.0808ZM36.0001 37.0808C36.0001 37.0808 35.116 37.0859 35.116 37.0808C35.1646 35.579 35.1792 34.3711 35.1598 33.1973C35.1193 30.5832 34.8133 27.9521 34.517 25.4063C34.3486 23.9609 34.1737 22.4677 34.0507 20.9949C33.7414 17.2942 33.539 13.3868 33.4338 9.04708C33.4273 8.77713 33.4111 8.49009 33.3966 8.19452C33.335 7.03271 33.2654 5.71713 33.6993 4.7706C33.7447 4.67151 33.7965 4.57583 33.8499 4.48528C33.8548 4.47673 33.8596 4.4699 33.8645 4.46135C33.9163 4.37593 33.973 4.29392 34.0312 4.21703C34.0393 4.20678 34.0474 4.19482 34.0555 4.18457C34.1154 4.1094 34.177 4.03935 34.2417 3.97442C34.2514 3.96246 34.2628 3.95221 34.2741 3.94196C34.3389 3.87703 34.4069 3.81724 34.4781 3.76085C34.4894 3.75231 34.5008 3.74206 34.5137 3.73352C34.585 3.67884 34.6595 3.62759 34.7372 3.58146C34.7485 3.57462 34.7598 3.56779 34.7712 3.56266C34.8521 3.51653 34.9331 3.47382 35.0189 3.43794C35.027 3.43452 35.0351 3.43111 35.0432 3.42769C35.1338 3.3901 35.2261 3.35764 35.32 3.3303C35.4172 3.30467 35.5143 3.28417 35.6147 3.2705C35.6196 3.2688 35.7394 3.25171 35.8236 3.24317C35.9742 3.2295 36.0001 3.23633 36.0001 3.23633C36.0001 3.23633 36.0243 3.2295 36.1749 3.24317C36.2607 3.25171 36.3789 3.2688 36.3838 3.2705C36.4842 3.28417 36.5829 3.30467 36.6785 3.3303C36.774 3.35764 36.8663 3.3901 36.9553 3.42769C36.9634 3.43111 36.9715 3.43452 36.9796 3.43794C37.0654 3.47382 37.148 3.51653 37.2273 3.56266C37.2387 3.56779 37.25 3.57462 37.2613 3.58146C37.339 3.62759 37.4135 3.67884 37.4864 3.73352C37.4977 3.74206 37.5107 3.75231 37.522 3.76085C37.5932 3.81724 37.6612 3.87703 37.726 3.94196C37.7373 3.95221 37.7471 3.96246 37.7584 3.97442C37.8232 4.03935 37.8847 4.1094 37.943 4.18457C37.9511 4.19482 37.9592 4.20678 37.9673 4.21703C38.0272 4.29392 38.0838 4.37593 38.1356 4.46135C38.1405 4.4699 38.1437 4.47673 38.1486 4.48528C38.2036 4.57583 38.2538 4.67151 38.2992 4.7706C38.7347 5.71713 38.6651 7.03271 38.6036 8.19452C38.5874 8.49009 38.5728 8.77713 38.5663 9.04708C38.4595 13.3868 38.2587 17.2942 37.9478 20.9949C37.8248 22.4677 37.6515 23.9609 37.4831 25.4063C37.1868 27.9521 36.8792 30.5832 36.8387 33.1973C36.8209 34.3711 36.8355 35.579 36.8825 37.0808C36.8825 37.0859 36.0001 37.0808 36.0001 37.0808ZM37.4508 37.0808C37.4508 37.0808 37.4362 36.7032 37.4459 36.3906C37.4508 36.2214 37.4556 36.0574 37.454 35.9105C37.4378 32.3584 37.5868 28.615 38.2814 25.3192C38.5242 24.166 38.8173 22.999 39.1006 21.8714C39.392 20.7164 39.6916 19.5204 39.9409 18.333C40.3376 16.4331 40.6663 14.4854 40.9836 12.6025C41.2686 10.9008 41.5665 9.14105 41.9114 7.42567C42.1817 6.08276 42.7889 5.03713 43.5337 4.62708C44.0599 4.33663 44.667 4.34176 45.3373 4.63904C47.4632 5.58557 46.8852 7.85281 46.3768 9.8518L46.3104 10.1115C45.1123 14.8612 43.3054 19.9544 41.2216 24.4547C40.9383 25.0681 40.6711 25.6182 40.4105 26.1496C39.2091 28.6184 38.181 30.4004 38.2134 33.85C38.215 34.0943 38.2474 37.0808 38.2474 37.0808H37.4508ZM39.5847 37.0808C39.5847 37.0808 39.0666 37.0825 38.9727 37.0808L38.9581 36.8689C38.8885 35.186 38.8157 33.4467 39.0812 31.7553C39.5685 28.6577 41.0905 26.2247 42.7015 23.65C43.1613 22.9153 43.6373 22.155 44.0826 21.3844C45.2111 19.4299 46.3525 17.2532 47.5733 14.7263C47.923 14.0053 48.2582 13.2467 48.5836 12.5154C49.0224 11.5245 49.4774 10.501 49.9679 9.5511C50.5103 8.50547 51.689 6.89261 53.4975 7.83401C54.0804 8.13813 54.4658 8.58235 54.6422 9.15471C54.8543 9.84667 54.7443 10.6821 54.3298 11.5108C52.4111 15.3533 49.0499 20.1953 45.7696 23.8447C45.2434 24.4291 44.6816 24.9929 44.136 25.5362C42.376 27.296 40.5546 29.1156 39.8713 31.8595C39.4649 33.4895 39.5847 37.0808 39.5847 37.0808ZM40.3214 37.0808C40.3214 37.0808 40.3101 37.0244 40.3068 36.9749C40.0785 33.4826 40.3975 30.749 42.7015 27.9128C43.6324 26.7681 44.7091 25.9275 45.8474 25.0373C46.2975 24.687 46.7605 24.3231 47.2122 23.9421C50.4456 21.217 53.198 17.9827 55.74 14.9057C55.8808 14.7348 56.0249 14.5469 56.1739 14.3538C56.7616 13.5918 57.4271 12.729 58.2382 12.4539C59.1611 12.143 60.1261 12.4249 60.7543 13.1903C61.3615 13.9301 61.4829 14.9415 61.0733 15.83C60.5973 16.8619 58.6155 18.6662 57.8691 19.3462C54.6406 22.2831 50.9685 24.781 47.2511 26.5647C46.9321 26.7185 46.5986 26.862 46.2764 27.0004C45.7696 27.2191 45.2451 27.4463 44.748 27.7214C41.9162 29.2847 40.6582 31.8595 41.0047 35.3723C41.0581 35.9139 41.1909 36.5067 41.3754 37.0466C41.3803 37.0586 41.3884 37.0808 41.3884 37.0808H40.3214ZM42.1218 37.0808C42.1218 37.0808 42.1137 37.062 42.1105 37.0518C41.6426 35.7293 41.6167 34.3266 41.6814 33.3579C41.7737 31.9928 42.5234 30.3885 43.5434 29.3667C45.0087 27.9042 47.1394 27.2875 49.2005 26.6912C50.0181 26.4537 50.7888 26.2316 51.519 25.9582C53.9671 25.0424 56.6143 23.5868 59.3878 21.6288C59.6566 21.4391 59.9464 21.2119 60.254 20.9727C61.9589 19.6469 64.0815 17.9964 65.6472 19.8758C66.0617 20.3747 66.256 20.9676 66.2042 21.5895C66.1475 22.2968 65.7735 22.9922 65.1793 23.4979C62.5369 25.7463 57.2587 27.3455 53.6336 27.7078C53.4441 27.7265 53.2514 27.7385 53.0588 27.747C52.8192 27.759 52.5779 27.7658 52.3367 27.7675C52.1926 27.7675 52.0468 27.7675 51.9027 27.7658C51.7117 27.7641 51.5206 27.7607 51.3296 27.7573C50.5994 27.7453 49.8416 27.7334 49.1195 27.8017C49.1179 27.8017 48.8508 27.8308 48.7585 27.8752C48.5933 27.9555 48.5512 28.0956 48.5658 28.1981C48.5885 28.3433 48.7164 28.451 48.8912 28.4715C49.2507 28.5159 49.6652 28.4988 50.0651 28.4817C50.3484 28.4698 50.6415 28.4578 50.9005 28.4681C51.7068 28.5022 52.5245 28.6287 53.3162 28.75C54.0885 28.8678 54.8851 28.9909 55.6801 29.0302C55.9521 29.0438 56.2257 29.0507 56.501 29.0524C58.4212 29.0609 60.3754 28.7653 62.3232 28.1691C62.6584 28.0665 63.0388 27.923 63.442 27.7693C65.4027 27.0278 67.8443 26.1051 68.7057 28.3553C69.0003 29.1241 68.9971 29.8332 68.6976 30.4636C68.0434 31.8407 66.2074 32.478 65.4497 32.6881C60.8126 33.973 55.9634 32.3618 53.4846 31.2871C53.0717 31.1077 52.6556 30.9113 52.2136 30.7028C49.4871 29.4129 46.3962 27.9521 43.8834 30.8754C42.9799 31.9278 42.5849 33.2691 42.8002 34.5539C42.9702 35.5619 43.4867 36.4316 44.2785 37.0654C44.2849 37.0706 44.2979 37.0808 44.2979 37.0808H42.1218ZM68.2814 34.612C63.8905 37.0603 56.4443 36.0898 52.0647 33.785C51.7392 33.6142 51.3782 33.3869 50.9961 33.146C49.445 32.1705 47.515 30.9557 46.0076 32.2849C45.5284 32.7052 45.2839 33.334 45.3535 33.9661C45.4199 34.5761 45.7648 35.0886 46.2991 35.3723C46.5258 35.4919 47.5069 35.8045 47.7676 35.3501C47.8469 35.21 47.8647 35.0818 47.8194 34.9656C47.7401 34.7691 47.5183 34.7128 47.3385 34.6683C47.2722 34.653 47.1993 34.6342 47.1653 34.6154C46.9742 34.5112 46.8528 34.3113 46.8463 34.0909C46.8399 33.8824 46.937 33.7013 47.1135 33.5903C47.1588 33.5612 47.2058 33.5373 47.2511 33.5185C47.2657 33.5117 47.2802 33.5082 47.2948 33.5014C47.3256 33.4912 47.3563 33.4792 47.3871 33.4707C47.4033 33.4655 47.4195 33.4638 47.4357 33.4604C47.4632 33.4536 47.4907 33.4484 47.5183 33.445C47.5344 33.445 47.5506 33.4416 47.5668 33.4416C47.5927 33.4399 47.6203 33.4382 47.6445 33.4382C47.6672 33.4382 47.6883 33.4399 47.7093 33.4416C47.7304 33.4433 47.7514 33.445 47.7708 33.4467C47.7919 33.4502 47.8113 33.4553 47.8324 33.4587C47.8502 33.4638 47.8696 33.4655 47.8874 33.4707C47.9085 33.4758 47.9279 33.4826 47.9489 33.4894C47.9635 33.4946 47.9797 33.498 47.9943 33.5031C48.0283 33.5168 48.0606 33.5288 48.0914 33.5424C48.5221 33.7406 48.8653 34.178 48.9657 34.6581C49.1584 35.5875 48.705 36.165 48.2889 36.4862C47.4244 37.156 45.9639 37.2807 45.101 36.7579C44.2542 36.2436 43.6713 35.3808 43.5029 34.3916C43.3345 33.3989 43.6001 32.3721 44.2283 31.5759C46.4934 28.7124 49.7704 30.2774 52.6605 31.6596C53.517 32.0697 54.3249 32.4558 55.0859 32.724C57.8982 33.715 62.9676 34.5077 66.4454 33.1768C66.5085 33.1529 66.5685 33.1255 66.63 33.1016C66.6947 33.0743 66.7611 33.0486 66.8243 33.0213C66.8987 32.9888 66.9684 32.953 67.0396 32.9171C67.0898 32.8932 67.1416 32.871 67.1902 32.8453C67.2307 32.8248 67.2679 32.8026 67.3068 32.7821C67.3861 32.7394 67.4638 32.6967 67.5399 32.6523C67.7682 32.5173 67.9852 32.3687 68.1892 32.2063C69.6188 31.0753 69.8277 29.3582 69.4019 28.1588C68.9275 26.8193 67.7391 26.0573 66.3029 26.1666C66.2333 26.1718 66.0924 26.2008 65.8674 26.247C65.7443 26.2709 65.576 26.3068 65.4707 26.3238L64.6903 24.7298C64.7065 24.7212 64.7259 24.711 64.7421 24.7041C64.7858 24.6836 64.836 24.6614 64.8862 24.6273C65.9257 23.9011 66.8923 23.0298 66.9214 21.5792C66.9441 20.5148 66.4907 19.5443 65.6812 18.9139C64.8636 18.2783 63.7966 18.104 62.8267 18.4475C62.4382 18.5841 62.0722 18.8182 61.7177 19.0455C61.6707 19.0745 61.6254 19.1035 61.58 19.1326L60.5471 17.6889C60.6296 17.5761 60.8353 17.3694 60.9308 17.272C61.015 17.1866 61.0814 17.1182 61.1186 17.0738C61.8116 16.2195 62.1224 15.22 61.9961 14.2615C61.8796 13.3714 61.3987 12.6077 60.6086 12.0541C59.3684 11.1845 57.8238 11.439 56.5771 12.7204C56.4734 12.8281 56.3779 12.9477 56.2856 13.0639C56.195 13.1783 56.1075 13.2894 56.0168 13.3816L54.7523 12.2677C54.7799 12.2147 54.8058 12.1617 54.8317 12.1088C55.1312 11.5005 55.4421 10.8718 55.4906 10.1354C55.5586 9.11029 55.1199 8.11421 54.3152 7.47351C54.2634 7.43251 54.2099 7.39321 54.1565 7.35391C53.6141 6.97462 52.9875 6.78839 52.361 6.80889C52.0485 6.81743 51.736 6.87894 51.4332 6.99512C50.3695 7.40004 49.7736 8.35683 49.309 9.25723L47.4033 8.57723C47.4065 8.43371 47.4729 8.12788 47.5053 7.96899C47.5134 7.9314 47.5215 7.89552 47.528 7.86135C47.5506 7.76055 47.5652 7.67853 47.5701 7.62215C47.6251 6.91653 47.5603 6.32537 47.3644 5.80085C47.2462 5.48477 47.0811 5.19432 46.8641 4.91583C45.8895 3.65663 44.2768 3.29613 43.0301 4.05985C41.7818 4.82357 41.458 6.14598 41.1779 7.44788L39.3257 7.29582C39.303 7.11301 39.316 6.86356 39.3273 6.62266C39.3386 6.40909 39.35 6.18869 39.337 6.00246C39.2447 4.64929 38.4935 3.07744 37.0233 2.61955L36.9845 2.60759C36.944 2.59392 36.8987 2.58025 36.8533 2.56829L36.8387 2.56317C36.7432 2.53583 36.6412 2.5102 36.536 2.49824C36.5311 2.49824 36.4469 2.4897 36.4421 2.48799C36.3984 2.48458 36.2834 2.48457 36.2413 2.48457C36.0729 2.48457 36.0082 2.48799 36.0001 2.48799C35.992 2.48799 35.9272 2.48457 35.7572 2.48457C35.7151 2.48457 35.6001 2.48458 35.558 2.48799C35.5532 2.4897 35.4674 2.49824 35.4625 2.49824C35.3589 2.5102 35.2569 2.53583 35.1614 2.56317C35.1549 2.56488 35.1517 2.56659 35.1468 2.56829C35.0998 2.58025 35.0561 2.59392 35.014 2.60759L34.9768 2.61955C33.5067 3.07744 32.7554 4.64929 32.6631 6.00246C32.6502 6.18869 32.6631 6.40909 32.6712 6.62266C32.6842 6.86356 32.6971 7.11301 32.6728 7.29582L30.8206 7.44788C30.5421 6.14598 30.2167 4.82357 28.97 4.05985C27.7233 3.29613 26.1107 3.65663 25.1344 4.91583C24.919 5.19432 24.7539 5.48477 24.6357 5.80085C24.4381 6.32537 24.375 6.91653 24.43 7.62215C24.4333 7.67853 24.4495 7.76055 24.4705 7.86135C24.477 7.89552 24.4851 7.9314 24.4932 7.96899C24.5272 8.12788 24.592 8.43371 24.5968 8.57723L22.6911 9.25723C22.2265 8.35683 21.629 7.40004 20.5653 6.99512C20.2641 6.87894 19.9516 6.81743 19.6375 6.80889C19.0126 6.78839 18.386 6.97462 17.8436 7.35391C17.7885 7.39321 17.7351 7.43251 17.6833 7.47351C16.8802 8.11421 16.4415 9.11029 16.5095 10.1354C16.558 10.8718 16.8673 11.5005 17.1684 12.1088C17.1943 12.1617 17.2202 12.2147 17.2462 12.2677L15.9833 13.3816C15.8926 13.2894 15.8052 13.1783 15.7129 13.0639C15.6206 12.9477 15.5267 12.8281 15.4231 12.7204C14.1764 11.439 12.6301 11.1845 11.3899 12.0541C10.5998 12.6077 10.1205 13.3714 10.0023 14.2615C9.87606 15.22 10.1885 16.2195 10.8815 17.0738C10.9171 17.1182 10.9835 17.1866 11.0693 17.272C11.1649 17.3694 11.3689 17.5761 11.4514 17.6889L10.4185 19.1326C10.3731 19.1035 10.3278 19.0745 10.2825 19.0455C9.92787 18.8182 9.56034 18.5841 9.17338 18.4475C8.20354 18.104 7.13656 18.2783 6.31892 18.9139C5.50776 19.5443 5.05603 20.5148 5.07708 21.5792C5.10784 23.0298 6.07282 23.9011 7.11389 24.6273C7.16247 24.6614 7.21266 24.6836 7.25637 24.7041C7.27256 24.711 7.29199 24.7212 7.30818 24.7298L6.5294 26.3238C6.42254 26.3068 6.25578 26.2709 6.13273 26.247C5.90767 26.2008 5.76681 26.1718 5.69719 26.1666C4.25944 26.0573 3.07265 26.8193 2.59664 28.1588C2.17082 29.3582 2.3813 31.0753 3.80933 32.2063C4.01334 32.3687 4.2303 32.5173 4.45859 32.6523C4.53469 32.6967 4.61402 32.7394 4.69174 32.7821C4.7306 32.8026 4.76945 32.8248 4.80831 32.8453C4.8585 32.871 4.90869 32.8932 4.95889 32.9171C5.03013 32.953 5.10137 32.9888 5.17423 33.0213C5.23737 33.0486 5.30375 33.0743 5.36852 33.1016C5.43004 33.1255 5.49157 33.1529 5.55309 33.1768C9.03251 34.5077 14.1019 33.715 16.9126 32.724C17.6736 32.4558 18.4831 32.0697 19.3396 31.6596C22.2297 30.2774 25.5051 28.7124 27.7702 31.5759C28.4001 32.3721 28.664 33.3989 28.4956 34.3916C28.3272 35.3808 27.7459 36.2436 26.8975 36.7579C26.0362 37.2807 24.5758 37.156 23.7096 36.4862C23.2951 36.165 22.8401 35.5875 23.0328 34.6581C23.1332 34.178 23.4764 33.7406 23.9087 33.5424C23.9378 33.5288 23.9702 33.5168 24.0042 33.5031C24.0188 33.498 24.035 33.4946 24.0512 33.4894C24.0706 33.4826 24.09 33.4758 24.1111 33.4707C24.1289 33.4655 24.1483 33.4638 24.1678 33.4587C24.1872 33.4553 24.2082 33.4502 24.2293 33.4467C24.2487 33.445 24.2698 33.4433 24.2892 33.4416C24.3102 33.4399 24.3329 33.4382 24.354 33.4382C24.3799 33.4382 24.4058 33.4399 24.4317 33.4416C24.4479 33.4416 24.464 33.4433 24.4802 33.445C24.5078 33.4484 24.5353 33.4536 24.5628 33.4604C24.5806 33.4638 24.5968 33.4655 24.613 33.4707C24.6421 33.4792 24.6729 33.4912 24.7037 33.5014C24.7199 33.5082 24.7328 33.5117 24.7474 33.5185C24.7943 33.5373 24.8397 33.5612 24.8866 33.5903C25.0615 33.7013 25.1586 33.8824 25.1538 34.0909C25.1473 34.3113 25.0243 34.5112 24.8348 34.6154C24.8008 34.6342 24.7263 34.653 24.6616 34.6683C24.4819 34.7128 24.2584 34.7691 24.1807 34.9656C24.1338 35.0818 24.1516 35.21 24.2309 35.3501C24.4916 35.8045 25.4727 35.4919 25.6994 35.3723C26.2337 35.0886 26.5786 34.5761 26.6466 33.9661C26.7146 33.334 26.4701 32.7052 25.9925 32.2849C24.4851 30.9557 22.5551 32.1705 21.0041 33.146C20.622 33.3869 20.2593 33.6142 19.9338 33.785C15.5542 36.0898 8.10963 37.0603 3.71866 34.612C-0.0360025 32.519 0.417343 28.709 1.35479 25.256C3.01112 19.1633 7.0038 13.3321 12.5961 8.84034C18.9041 3.77281 26.6369 1.05794 35.5791 0.772617H36.4194C45.3616 1.05794 53.0944 3.77281 59.4024 8.84034C64.9963 13.3321 68.9874 19.1633 70.6437 25.256C71.5828 28.709 72.0361 32.519 68.2814 34.612Z" fill="#D75220"/>
</svg>
